<?xml version="1.0" standalone="no"?>
<!DOCTYPE svg PUBLIC "-//W3C//DTD SVG 20010904//EN"
 "http://www.w3.org/TR/2001/REC-SVG-20010904/DTD/svg10.dtd">
<svg version="1.0" xmlns="http://www.w3.org/2000/svg"
 width="700.000000pt" height="700.000000pt" viewBox="0 0 700.000000 700.000000"
 preserveAspectRatio="xMidYMid meet">
<metadata>
Created by potrace 1.14, written by Peter Selinger 2001-2017
</metadata>
<g transform="translate(0.000000,700.000000) scale(0.100000,-0.100000)"
fill="#000000" stroke="none">
<path d="M3278 6995 c-1 -1 -42 -5 -89 -9 -47 -4 -95 -8 -105 -10 -10 -2 -41
-7 -69 -10 -335 -44 -715 -158 -1030 -312 -180 -87 -448 -247 -555 -331 -8 -6
-51 -40 -95 -74 -353 -275 -673 -651 -897 -1054 -48 -86 -148 -289 -148 -301
0 -2 -11 -27 -24 -56 -60 -133 -155 -432 -181 -569 -3 -13 -11 -58 -20 -99
-29 -147 -36 -200 -52 -370 -15 -165 -8 -592 12 -711 2 -13 6 -46 9 -74 9 -78
22 -152 51 -285 21 -96 91 -339 114 -395 5 -11 25 -65 46 -120 63 -166 249
-531 312 -610 4 -6 34 -49 65 -95 171 -256 431 -533 712 -758 89 -72 367 -262
382 -262 4 0 15 -6 23 -14 25 -22 281 -150 404 -202 264 -112 591 -202 866
-240 25 -3 57 -8 71 -10 163 -25 682 -25 842 1 13 2 46 7 73 10 72 10 86 12
120 19 17 3 44 8 60 11 343 65 740 212 1039 384 49 28 93 51 97 51 5 0 9 5 9
10 0 6 5 10 10 10 15 0 220 141 330 227 152 118 324 280 450 422 36 41 70 79
76 85 6 6 48 61 94 121 150 197 277 405 383 628 26 53 47 99 47 102 0 2 11 28
24 57 57 127 151 421 182 573 17 81 54 301 59 350 4 33 9 71 11 85 9 46 11
524 4 605 -15 153 -21 210 -25 225 -2 8 -7 35 -10 60 -17 129 -80 384 -136
552 -348 1037 -1167 1857 -2204 2206 -168 57 -420 119 -555 137 -19 3 -46 7
-60 10 -13 2 -52 7 -86 11 -33 3 -74 8 -90 10 -32 5 -540 14 -546 9z m-2103
-2966 l-6 -341 32 26 c78 66 200 107 300 100 95 -6 174 -40 254 -111 74 -66
144 -220 160 -353 45 -357 -102 -651 -363 -726 -68 -20 -180 -15 -237 11 l-40
18 40 6 c22 4 54 15 71 25 59 35 107 143 121 271 9 79 9 334 0 407 -8 69 -38
159 -69 205 -48 71 -143 110 -250 104 -17 -1 -18 -30 -18 -465 l0 -463 -62
-12 c-81 -16 -157 -44 -236 -87 -34 -19 -67 -34 -72 -34 -6 0 -10 292 -10 799
l0 798 -55 34 c-30 19 -55 37 -55 41 0 6 26 13 90 23 19 3 46 7 60 10 14 3 39
7 55 10 90 14 117 18 185 30 41 7 83 13 93 14 16 1 17 -19 12 -340z m1370
-234 c-56 -39 -77 -87 -100 -227 -18 -117 -18 -406 1 -488 63 -271 272 -372
535 -259 27 12 52 19 56 16 9 -10 -97 -105 -157 -141 -100 -59 -149 -74 -271
-83 -260 -19 -474 124 -556 370 -23 72 -26 99 -27 212 0 108 4 143 23 205 44
144 120 251 229 323 80 53 136 75 217 85 68 9 79 6 50 -13z m225 -1 c14 -4 48
-21 75 -39 130 -82 222 -249 228 -411 l2 -49 -267 -3 c-177 -1 -268 1 -268 8
0 6 28 10 65 10 61 0 65 2 66 23 0 12 1 123 1 247 0 124 2 228 4 231 4 6 31 1
94 -17z m1092 6 c121 -29 212 -101 249 -198 20 -55 21 -73 23 -440 l1 -384 28
-24 c31 -27 72 -26 115 2 46 30 35 3 -19 -49 -148 -140 -401 -126 -481 26 -22
41 -22 51 -24 422 -1 410 -4 457 -35 516 -23 46 -88 96 -135 105 -56 10 -45
23 31 37 41 7 195 -1 247 -13z m1469 -11 c61 -27 112 -84 136 -153 16 -46 18
-98 18 -508 l0 -457 45 -11 c25 -7 53 -14 63 -17 9 -2 17 -8 17 -13 0 -6 -130
-10 -305 -10 -168 0 -305 4 -305 8 0 5 24 16 54 25 l53 17 -1 438 c-1 240 -6
450 -11 467 -13 45 -61 91 -110 105 -24 7 -48 9 -54 6 -21 -14 -21 16 1 34
107 89 282 119 399 69z m675 6 c75 -31 126 -90 150 -173 13 -45 16 -127 16
-503 l0 -449 37 -10 c20 -5 41 -10 47 -10 5 0 19 -7 30 -15 17 -13 -16 -14
-288 -15 -302 0 -356 6 -270 30 68 19 64 -14 63 451 0 233 -3 437 -6 453 -15
75 -63 120 -142 132 -50 7 -53 15 -15 42 116 82 275 110 378 67z m-1206 -160
c0 -88 0 -341 0 -562 l0 -402 38 -10 c20 -5 49 -13 65 -17 75 -18 1 -24 -288
-24 -199 0 -315 4 -315 10 0 5 12 12 28 16 15 3 41 9 57 13 l30 7 3 522 2 521
-26 18 c-14 10 -40 30 -57 44 l-31 26 247 -1 247 0 0 -161z m-1307 67 c118
-79 109 -250 -15 -311 -121 -58 -255 17 -263 146 -10 156 151 251 278 165z
m132 -477 c-71 -49 -85 -99 -82 -297 2 -121 4 -140 23 -165 16 -21 31 -29 62
-31 23 -2 42 -7 42 -12 0 -5 -19 -25 -42 -45 -109 -93 -298 -85 -405 17 -89
85 -104 270 -31 381 54 83 200 150 358 163 41 4 77 8 79 10 2 2 7 1 10 -2 3
-3 -3 -12 -14 -19z"/>
</g>
</svg>
